<?xml version="1.0" standalone="no"?>
<!DOCTYPE svg PUBLIC "-//W3C//DTD SVG 20010904//EN"
 "http://www.w3.org/TR/2001/REC-SVG-20010904/DTD/svg10.dtd">
<svg version="1.0" xmlns="http://www.w3.org/2000/svg"
 width="1014.000000pt" height="1014.000000pt" viewBox="0 0 1014.000000 1014.000000"
 preserveAspectRatio="xMidYMid meet">
<metadata>
Created by potrace 1.14, written by Peter Selinger 2001-2017
</metadata>
<g transform="translate(0.000000,1014.000000) scale(0.100000,-0.100000)"
fill="#000000" stroke="none">
<path d="M5205 10093 c-101 -7 -252 -29 -525 -78 -162 -29 -352 -61 -422 -70
-280 -35 -375 -85 -504 -265 -80 -111 -85 -117 -165 -153 -142 -64 -296 -215
-438 -425 -206 -307 -330 -634 -395 -1042 -26 -165 -27 -506 -2 -698 48 -368
233 -916 501 -1487 57 -121 286 -580 325 -650 15 -27 58 -106 95 -175 37 -69
81 -150 98 -180 27 -48 270 -475 317 -555 9 -16 63 -109 119 -206 l101 -177
-86 -198 c-352 -816 -535 -1414 -604 -1977 -14 -115 -14 -419 0 -532 30 -248
108 -454 237 -622 122 -161 272 -263 503 -343 116 -40 235 -47 376 -22 l92 16
75 -37 c168 -82 342 -119 556 -118 274 1 496 61 816 222 131 65 228 165 299
307 65 129 137 406 155 592 10 102 7 359 -5 430 -3 19 -12 78 -20 130 -30 196
-105 435 -210 672 -97 218 -316 654 -488 973 -24 44 -63 116 -86 160 -23 44
-69 129 -102 188 l-59 108 52 97 c29 53 70 131 92 172 22 41 59 109 82 150 23
41 61 111 85 155 24 44 62 114 85 155 70 124 404 739 530 975 128 241 334 657
383 775 133 322 256 748 291 1015 6 44 13 98 16 120 13 90 13 472 0 578 -37
304 -118 561 -262 837 -289 552 -423 759 -526 812 -23 11 -76 23 -130 29 -152
15 -435 101 -888 269 -189 70 -241 80 -364 73z m-305 -1362 c355 -65 600 -241
748 -536 62 -124 96 -239 109 -372 12 -120 6 -349 -12 -453 -2 -14 -7 -47 -10
-75 -26 -210 -141 -637 -268 -992 -124 -344 -453 -1114 -476 -1113 -9 1 -355
592 -466 795 -170 314 -314 620 -370 788 -57 172 -120 442 -171 732 -24 137
-23 445 1 565 22 111 32 148 62 240 20 58 56 152 81 209 l45 104 75 34 c85 38
190 69 278 82 80 11 294 6 374 -8z"/>
<path d="M3743 4585 l-21 -15 26 -49 c15 -27 25 -51 22 -54 -3 -2 -62 -36
-132 -76 l-127 -72 17 -29 c9 -15 19 -27 22 -26 3 2 63 36 133 76 70 40 129
71 131 69 2 -2 13 -23 25 -46 22 -45 35 -51 63 -29 15 11 11 22 -48 127 -80
140 -83 144 -111 124z"/>
<path d="M3909 4250 c-48 -29 -113 -67 -211 -122 -32 -18 -58 -35 -58 -38 0
-3 9 -16 19 -29 l18 -23 109 62 c60 35 114 65 119 68 11 6 7 1 -100 -126 -72
-85 -77 -94 -67 -117 14 -29 7 -29 113 -11 46 8 102 17 124 21 22 3 49 8 60
11 11 3 -35 -27 -102 -66 -68 -40 -123 -78 -123 -86 0 -8 5 -14 10 -14 6 0 10
-7 10 -15 0 -8 3 -15 6 -15 18 0 314 177 314 188 0 11 -11 31 -46 80 -1 2 -28
-1 -60 -7 -33 -6 -79 -13 -104 -16 -25 -3 -58 -8 -75 -11 -16 -3 -25 -2 -19 3
5 4 45 51 87 104 l77 96 -26 47 c-14 25 -26 46 -27 45 -1 0 -23 -13 -48 -29z"/>
</g>
</svg>
